PathFileType	4	(X/Y/Z)	D:\Share\Shared_Data\Ergonomics\Sit To Stand Pertubation\S3\Perturbed.trc
DataRate	CameraRate	NumFrames	NumMarkers	Units	OrigDataRate	OrigDataStartFrame	OrigNumFrames	
100	100	8	18	m	100	11523	211
Frame#	Time	R_ASIS			R_Pelvis			V_Sacral			L_Pelvis			L_ASIS			Clavical			R_Acromium			L_Acromium			Sternum			Torso			R_Thigh_Med			R_Thigh_Lat			R_Thigh			R_Shank_Med			R_Shank_Lat			R_Shank			R_Heel			R_Toe			
		X1	Y1	Z1	X2	Y2	Z2	X3	Y3	Z3	X4	Y4	Z4	X5	Y5	Z5	X6	Y6	Z6	X7	Y7	Z7	X8	Y8	Z8	X9	Y9	Z9	X10	Y10	Z10	X11	Y11	Z11	X12	Y12	Z12	X13	Y13	Z13	X14	Y14	Z14	X15	Y15	Z15	X16	Y16	Z16	X17	Y17	Z17	X18	Y18	Z18	

11523	115.22	0.00816611	0.64039246	0.14558487	-0.10263533	0.63186401	0.20134695	-0.21007477	0.63154315	0.012681101	-0.09344751	0.64982806	-0.18817624	0.013646882	0.64532349	-0.13285591	0.034472195	1.0298992	0.0016575094	-0.001369626	1.0902324	0.17298407	0.0012696003	1.0894836	-0.16168028	0.048728737	0.94954608	0.0058193564	0.038133949	1.0135763	-0.062491722	0.34822891	0.46968234	0.062634544	0.3366615	0.45234274	0.1813476	0.16654529	0.57840784	0.10286804	0.29571481	0.10761076	0.090609863	0.28196017	0.09489518	0.17218185	0.2921745	0.27399921	0.19326355	0.22205061	0.05815424	0.13406491	0.43842529	0.056742054	0.11125855
11524	115.23	0.0081131582	0.63983667	0.145513	-0.10219278	0.6320376	0.20136134	-0.20969962	0.63221844	0.012685862	-0.093002861	0.6500683	-0.18819667	0.014002488	0.64509576	-0.13293033	0.039322365	1.0285167	0.0018176827	0.0044318075	1.089179	0.17314671	0.0066773443	1.0884604	-0.16088956	0.052582401	0.94799017	0.0059178348	0.042811451	1.0121658	-0.0623167	0.34819687	0.46965463	0.062662704	0.3365929	0.45233423	0.1813856	0.16655054	0.5783623	0.10278056	0.29570279	0.10760849	0.09063179	0.28199405	0.094838013	0.17217644	0.29210309	0.27397379	0.19329039	0.22204027	0.058141994	0.13407144	0.43841724	0.056749142	0.11127122
11525	115.24	0.008006649	0.63923126	0.14545412	-0.10173141	0.63221112	0.2013709	-0.20929315	0.6329516	0.012685814	-0.092522362	0.65032715	-0.18820148	0.014398388	0.64483063	-0.13300165	0.044416931	1.0270272	0.001986793	0.01052821	1.0880312	0.17330592	0.012325872	1.0873015	-0.15982077	0.056570042	0.94631635	0.0060084577	0.047734035	1.0106542	-0.062132656	0.3481615	0.46963068	0.062700153	0.33651334	0.4523269	0.18143358	0.16655162	0.57831128	0.10269231	0.29568903	0.10760562	0.09065654	0.28203458	0.094766373	0.17216499	0.29202753	0.27394702	0.19332362	0.22202687	0.058126671	0.13407799	0.43840848	0.056756298	0.11128519
11526	115.25	0.0079648662	0.63860083	0.14541833	-0.10125011	0.63238953	0.20137459	-0.20885146	0.63375043	0.012682134	-0.092003838	0.65060339	-0.18818878	0.014839513	0.64452557	-0.13307056	0.04975983	1.0254202	0.0021644542	0.016927692	1.0867748	0.17346056	0.018234457	1.0860115	-0.15853333	0.060709736	0.94451471	0.0060941644	0.052911079	1.0090327	-0.061934845	0.34812106	0.46960385	0.062750668	0.3364245	0.45231955	0.18149101	0.16654463	0.57825299	0.10260451	0.29567319	0.1076019	0.090683975	0.28207455	0.094684853	0.17215016	0.29195004	0.27391913	0.19336351	0.22201062	0.058107838	0.13408467	0.43839905	0.056763382	0.11130067
11527	115.26	0.0080801382	0.63796289	0.14541469	-0.10074561	0.63257825	0.20137268	-0.20836783	0.63462347	0.012676674	-0.091445297	0.65089685	-0.18815919	0.015325007	0.64417957	-0.13313937	0.055354893	1.0236874	0.0023495905	0.02363693	1.0853953	0.17360909	0.024428406	1.0846027	-0.15715202	0.065032196	0.94257709	0.0061778278	0.058349819	1.0072923	-0.06171891	0.34807446	0.46956204	0.062823811	0.33632852	0.45230994	0.18155817	0.16652531	0.57818512	0.10251828	0.29565472	0.1075971	0.090713867	0.28210779	0.094598419	0.17213673	0.29187231	0.27389017	0.19341022	0.22199193	0.058085205	0.13409227	0.43838852	0.056770523	0.11131791
11528	115.27	0.0083850546	0.63732098	0.14544731	-0.10021241	0.63278302	0.20136684	-0.20783301	0.63558044	0.012672631	-0.090844582	0.65120728	-0.18811403	0.015854411	0.64379401	-0.13320987	0.061205223	1.0218241	0.0025408564	0.030659981	1.0838802	0.17375003	0.030934666	1.0830886	-0.1558318	0.069566376	0.94049451	0.0062608476	0.064054909	1.0054256	-0.061481243	0.34802164	0.46948862	0.062934742	0.33622678	0.45229544	0.18163536	0.16648955	0.57810529	0.10243449	0.2956326	0.10759103	0.09074601	0.2821282	0.094515945	0.17213228	0.29179483	0.27385989	0.19346396	0.22197089	0.058058315	0.13410155	0.43837653	0.056777969	0.1113372
11529	115.28	0.0088722391	0.63666949	0.14551685	-0.099644104	0.63300842	0.20136008	-0.20723505	0.63663184	0.012675631	-0.090198441	0.65153467	-0.18805357	0.016435791	0.64337347	-0.13328267	0.06731189	1.019829	0.0027365234	0.037997646	1.0822216	0.17388196	0.037770924	1.0814845	-0.15468254	0.07432872	0.93825507	0.0063424211	0.070027168	1.0034272	-0.061219326	0.34796335	0.46936456	0.06310162	0.33611887	0.45227426	0.18172292	0.16643365	0.57801031	0.10235369	0.29560571	0.10758358	0.090780342	0.28212811	0.094453285	0.17214661	0.29171628	0.27382773	0.19352475	0.22194719	0.05802636	0.13411269	0.43836249	0.056786037	0.11135881
11530	115.29	0.0095212936	0.63599969	0.14562285	-0.099034004	0.63325818	0.20135616	-0.2065593	0.63778711	0.012693021	-0.089501518	0.65188019	-0.18797847	0.017095367	0.64292615	-0.13335835	0.073673233	1.0177016	0.0029345555	0.045647522	1.0804139	0.17400317	0.044940914	1.0798131	-0.15373235	0.079323761	0.93584412	0.0064206152	0.076261749	1.0012946	-0.060931797	0.34790146	0.46917276	0.063341743	0.33600299	0.45224512	0.181821	0.16635558	0.57789838	0.10227615	0.29557281	0.10757478	0.090817215	0.28209888	0.094432426	0.17219086	0.29163348	0.27379291	0.19359233	0.2219205	0.057988457	0.13412567	0.43834601	0.056795189	0.11138284
